<?xml version="1.0" encoding="UTF-8" standalone="no"?>
<!DOCTYPE svg PUBLIC "-//W3C//DTD SVG 1.1//EN"
 "http://www.w3.org/Graphics/SVG/1.1/DTD/svg11.dtd">
<!-- Generated by graphviz version 2.40.1 (20161225.0304)
 -->
<!-- Title: snakemake_dag Pages: 1 -->
<svg width="140pt" height="188pt"
 viewBox="0.00 0.00 140.49 188.00" xmlns="http://www.w3.org/2000/svg" xmlns:xlink="http://www.w3.org/1999/xlink">
<g id="graph0" class="graph" transform="scale(1 1) rotate(0) translate(4 184)">
<title>snakemake_dag</title>
<polygon fill="#ffffff" stroke="transparent" points="-4,4 -4,-184 136.4915,-184 136.4915,4 -4,4"/>
<!-- 0 -->
<g id="node1" class="node">
<title>0</title>
<path fill="none" stroke="#56d8c9" stroke-width="2" d="M48.9745,-36C48.9745,-36 12.0085,-36 12.0085,-36 6.0085,-36 .0085,-30 .0085,-24 .0085,-24 .0085,-12 .0085,-12 .0085,-6 6.0085,0 12.0085,0 12.0085,0 48.9745,0 48.9745,0 54.9745,0 60.9745,-6 60.9745,-12 60.9745,-12 60.9745,-24 60.9745,-24 60.9745,-30 54.9745,-36 48.9745,-36"/>
<text text-anchor="middle" x="30.4915" y="-15" font-family="sans" font-size="10.00" fill="#000000">experiment</text>
</g>
<!-- 1 -->
<g id="node2" class="node">
<title>1</title>
<path fill="none" stroke="#56a2d8" stroke-width="2" d="M107.7889,-108C107.7889,-108 27.1941,-108 27.1941,-108 21.1941,-108 15.1941,-102 15.1941,-96 15.1941,-96 15.1941,-84 15.1941,-84 15.1941,-78 21.1941,-72 27.1941,-72 27.1941,-72 107.7889,-72 107.7889,-72 113.7889,-72 119.7889,-78 119.7889,-84 119.7889,-84 119.7889,-96 119.7889,-96 119.7889,-102 113.7889,-108 107.7889,-108"/>
<text text-anchor="middle" x="67.4915" y="-87" font-family="sans" font-size="10.00" fill="#000000">mv_preprocessed_file</text>
</g>
<!-- 1&#45;&gt;0 -->
<g id="edge1" class="edge">
<title>1&#45;&gt;0</title>
<path fill="none" stroke="#c0c0c0" stroke-width="2" d="M58.1548,-71.8314C54.0672,-63.8771 49.1811,-54.369 44.6606,-45.5723"/>
<polygon fill="#c0c0c0" stroke="#c0c0c0" stroke-width="2" points="47.6376,-43.7078 39.9539,-36.4133 41.4116,-46.9074 47.6376,-43.7078"/>
</g>
<!-- 3 -->
<g id="node4" class="node">
<title>3</title>
<path fill="none" stroke="#56d87b" stroke-width="2" d="M120.4915,-36C120.4915,-36 90.4915,-36 90.4915,-36 84.4915,-36 78.4915,-30 78.4915,-24 78.4915,-24 78.4915,-12 78.4915,-12 78.4915,-6 84.4915,0 90.4915,0 90.4915,0 120.4915,0 120.4915,0 126.4915,0 132.4915,-6 132.4915,-12 132.4915,-12 132.4915,-24 132.4915,-24 132.4915,-30 126.4915,-36 120.4915,-36"/>
<text text-anchor="middle" x="105.4915" y="-15" font-family="sans" font-size="10.00" fill="#000000">train</text>
</g>
<!-- 1&#45;&gt;3 -->
<g id="edge3" class="edge">
<title>1&#45;&gt;3</title>
<path fill="none" stroke="#c0c0c0" stroke-width="2" d="M77.0805,-71.8314C81.3232,-63.7925 86.4036,-54.1666 91.0875,-45.2918"/>
<polygon fill="#c0c0c0" stroke="#c0c0c0" stroke-width="2" points="94.2011,-46.8908 95.7734,-36.4133 88.0104,-43.6235 94.2011,-46.8908"/>
</g>
<!-- 2 -->
<g id="node3" class="node">
<title>2</title>
<path fill="none" stroke="#d85656" stroke-width="2" d="M84.745,-180C84.745,-180 50.238,-180 50.238,-180 44.238,-180 38.238,-174 38.238,-168 38.238,-168 38.238,-156 38.238,-156 38.238,-150 44.238,-144 50.238,-144 50.238,-144 84.745,-144 84.745,-144 90.745,-144 96.745,-150 96.745,-156 96.745,-156 96.745,-168 96.745,-168 96.745,-174 90.745,-180 84.745,-180"/>
<text text-anchor="middle" x="67.4915" y="-159" font-family="sans" font-size="10.00" fill="#000000">preprocess</text>
</g>
<!-- 2&#45;&gt;1 -->
<g id="edge2" class="edge">
<title>2&#45;&gt;1</title>
<path fill="none" stroke="#c0c0c0" stroke-width="2" d="M67.4915,-143.8314C67.4915,-136.131 67.4915,-126.9743 67.4915,-118.4166"/>
<polygon fill="#c0c0c0" stroke="#c0c0c0" stroke-width="2" points="70.9916,-118.4132 67.4915,-108.4133 63.9916,-118.4133 70.9916,-118.4132"/>
</g>
</g>
</svg>
