<?xml version="1.0" encoding="UTF-8" standalone="no"?>
<!DOCTYPE svg PUBLIC "-//W3C//DTD SVG 1.1//EN"
 "http://www.w3.org/Graphics/SVG/1.1/DTD/svg11.dtd">
<!-- Generated by graphviz version 2.40.1 (20161225.0304)
 -->
<!-- Title: snakemake_dag Pages: 1 -->
<svg width="196pt" height="476pt"
 viewBox="0.00 0.00 195.61 476.00" xmlns="http://www.w3.org/2000/svg" xmlns:xlink="http://www.w3.org/1999/xlink">
<g id="graph0" class="graph" transform="scale(1 1) rotate(0) translate(4 472)">
<title>snakemake_dag</title>
<polygon fill="#ffffff" stroke="transparent" points="-4,4 -4,-472 191.609,-472 191.609,4 -4,4"/>
<!-- 0 -->
<g id="node1" class="node">
<title>0</title>
<path fill="none" stroke="#56d87b" stroke-width="2" d="M108.8045,-36C108.8045,-36 78.8045,-36 78.8045,-36 72.8045,-36 66.8045,-30 66.8045,-24 66.8045,-24 66.8045,-12 66.8045,-12 66.8045,-6 72.8045,0 78.8045,0 78.8045,0 108.8045,0 108.8045,0 114.8045,0 120.8045,-6 120.8045,-12 120.8045,-12 120.8045,-24 120.8045,-24 120.8045,-30 114.8045,-36 108.8045,-36"/>
<text text-anchor="middle" x="93.8045" y="-15" font-family="sans" font-size="10.00" fill="#000000">all</text>
</g>
<!-- 1 -->
<g id="node2" class="node">
<title>1</title>
<path fill="none" stroke="#56a2d8" stroke-width="2" d="M142.2323,-108C142.2323,-108 45.3767,-108 45.3767,-108 39.3767,-108 33.3767,-102 33.3767,-96 33.3767,-96 33.3767,-84 33.3767,-84 33.3767,-78 39.3767,-72 45.3767,-72 45.3767,-72 142.2323,-72 142.2323,-72 148.2323,-72 154.2323,-78 154.2323,-84 154.2323,-84 154.2323,-96 154.2323,-96 154.2323,-102 148.2323,-108 142.2323,-108"/>
<text text-anchor="middle" x="93.8045" y="-87" font-family="sans" font-size="10.00" fill="#000000">copy_to_final_destination</text>
</g>
<!-- 1&#45;&gt;0 -->
<g id="edge1" class="edge">
<title>1&#45;&gt;0</title>
<path fill="none" stroke="#c0c0c0" stroke-width="2" d="M93.8045,-71.8314C93.8045,-64.131 93.8045,-54.9743 93.8045,-46.4166"/>
<polygon fill="#c0c0c0" stroke="#c0c0c0" stroke-width="2" points="97.3046,-46.4132 93.8045,-36.4133 90.3046,-46.4133 97.3046,-46.4132"/>
</g>
<!-- 2 -->
<g id="node3" class="node">
<title>2</title>
<path fill="none" stroke="#c6d856" stroke-width="2" d="M175.4139,-180C175.4139,-180 12.1951,-180 12.1951,-180 6.1951,-180 .1951,-174 .1951,-168 .1951,-168 .1951,-156 .1951,-156 .1951,-150 6.1951,-144 12.1951,-144 12.1951,-144 175.4139,-144 175.4139,-144 181.4139,-144 187.4139,-150 187.4139,-156 187.4139,-156 187.4139,-168 187.4139,-168 187.4139,-174 181.4139,-180 175.4139,-180"/>
<text text-anchor="middle" x="93.8045" y="-159" font-family="sans" font-size="10.00" fill="#000000">remove_unused_vars_from_input_features</text>
</g>
<!-- 2&#45;&gt;1 -->
<g id="edge2" class="edge">
<title>2&#45;&gt;1</title>
<path fill="none" stroke="#c0c0c0" stroke-width="2" d="M93.8045,-143.8314C93.8045,-136.131 93.8045,-126.9743 93.8045,-118.4166"/>
<polygon fill="#c0c0c0" stroke="#c0c0c0" stroke-width="2" points="97.3046,-118.4132 93.8045,-108.4133 90.3046,-118.4133 97.3046,-118.4132"/>
</g>
<!-- 3 -->
<g id="node4" class="node">
<title>3</title>
<path fill="none" stroke="#d85656" stroke-width="2" d="M164.0827,-252C164.0827,-252 23.5263,-252 23.5263,-252 17.5263,-252 11.5263,-246 11.5263,-240 11.5263,-240 11.5263,-228 11.5263,-228 11.5263,-222 17.5263,-216 23.5263,-216 23.5263,-216 164.0827,-216 164.0827,-216 170.0827,-216 176.0827,-222 176.0827,-228 176.0827,-228 176.0827,-240 176.0827,-240 176.0827,-246 170.0827,-252 164.0827,-252"/>
<text text-anchor="middle" x="93.8045" y="-231" font-family="sans" font-size="10.00" fill="#000000">remove_targets_from_input_features</text>
</g>
<!-- 3&#45;&gt;2 -->
<g id="edge3" class="edge">
<title>3&#45;&gt;2</title>
<path fill="none" stroke="#c0c0c0" stroke-width="2" d="M93.8045,-215.8314C93.8045,-208.131 93.8045,-198.9743 93.8045,-190.4166"/>
<polygon fill="#c0c0c0" stroke="#c0c0c0" stroke-width="2" points="97.3046,-190.4132 93.8045,-180.4133 90.3046,-190.4133 97.3046,-190.4132"/>
</g>
<!-- 4 -->
<g id="node5" class="node">
<title>4</title>
<path fill="none" stroke="#78d856" stroke-width="2" d="M152.2705,-324C152.2705,-324 35.3385,-324 35.3385,-324 29.3385,-324 23.3385,-318 23.3385,-312 23.3385,-312 23.3385,-300 23.3385,-300 23.3385,-294 29.3385,-288 35.3385,-288 35.3385,-288 152.2705,-288 152.2705,-288 158.2705,-288 164.2705,-294 164.2705,-300 164.2705,-300 164.2705,-312 164.2705,-312 164.2705,-318 158.2705,-324 152.2705,-324"/>
<text text-anchor="middle" x="93.8045" y="-303" font-family="sans" font-size="10.00" fill="#000000">add_config_to_output_features</text>
</g>
<!-- 4&#45;&gt;3 -->
<g id="edge4" class="edge">
<title>4&#45;&gt;3</title>
<path fill="none" stroke="#c0c0c0" stroke-width="2" d="M93.8045,-287.8314C93.8045,-280.131 93.8045,-270.9743 93.8045,-262.4166"/>
<polygon fill="#c0c0c0" stroke="#c0c0c0" stroke-width="2" points="97.3046,-262.4132 93.8045,-252.4133 90.3046,-262.4133 97.3046,-262.4132"/>
</g>
<!-- 5 -->
<g id="node6" class="node">
<title>5</title>
<path fill="none" stroke="#d8a456" stroke-width="2" d="M160.3675,-396C160.3675,-396 27.2415,-396 27.2415,-396 21.2415,-396 15.2415,-390 15.2415,-384 15.2415,-384 15.2415,-372 15.2415,-372 15.2415,-366 21.2415,-360 27.2415,-360 27.2415,-360 160.3675,-360 160.3675,-360 166.3675,-360 172.3675,-366 172.3675,-372 172.3675,-372 172.3675,-384 172.3675,-384 172.3675,-390 166.3675,-396 160.3675,-396"/>
<text text-anchor="middle" x="93.8045" y="-375" font-family="sans" font-size="10.00" fill="#000000">add_config_to_price_input_feature</text>
</g>
<!-- 5&#45;&gt;4 -->
<g id="edge5" class="edge">
<title>5&#45;&gt;4</title>
<path fill="none" stroke="#c0c0c0" stroke-width="2" d="M93.8045,-359.8314C93.8045,-352.131 93.8045,-342.9743 93.8045,-334.4166"/>
<polygon fill="#c0c0c0" stroke="#c0c0c0" stroke-width="2" points="97.3046,-334.4132 93.8045,-324.4133 90.3046,-334.4133 97.3046,-334.4132"/>
</g>
<!-- 6 -->
<g id="node7" class="node">
<title>6</title>
<path fill="none" stroke="#56d8c9" stroke-width="2" d="M111.6886,-468C111.6886,-468 75.9204,-468 75.9204,-468 69.9204,-468 63.9204,-462 63.9204,-456 63.9204,-456 63.9204,-444 63.9204,-444 63.9204,-438 69.9204,-432 75.9204,-432 75.9204,-432 111.6886,-432 111.6886,-432 117.6886,-432 123.6886,-438 123.6886,-444 123.6886,-444 123.6886,-456 123.6886,-456 123.6886,-462 117.6886,-468 111.6886,-468"/>
<text text-anchor="middle" x="93.8045" y="-447" font-family="sans" font-size="10.00" fill="#000000">init_config</text>
</g>
<!-- 6&#45;&gt;5 -->
<g id="edge6" class="edge">
<title>6&#45;&gt;5</title>
<path fill="none" stroke="#c0c0c0" stroke-width="2" d="M93.8045,-431.8314C93.8045,-424.131 93.8045,-414.9743 93.8045,-406.4166"/>
<polygon fill="#c0c0c0" stroke="#c0c0c0" stroke-width="2" points="97.3046,-406.4132 93.8045,-396.4133 90.3046,-406.4133 97.3046,-406.4132"/>
</g>
</g>
</svg>
